<svg width="45" height="44" viewBox="0 0 45 44" fill="none" xmlns="http://www.w3.org/2000/svg">
<path d="M27.9617 9.76944C29.7162 9.65979 31.4463 10.269 32.75 11.463C33.9441 12.7667 34.5533 14.4968 34.4558 16.2635V27.6432C34.5654 29.4099 33.9441 31.14 32.7622 32.4437C31.4585 33.6377 29.7162 34.2469 27.9617 34.1372H16.5819C14.8152 34.2469 13.0851 33.6377 11.7814 32.4437C10.5873 31.14 9.97814 29.4099 10.0878 27.6432V16.2635C9.97814 14.4968 10.5873 12.7667 11.7814 11.463C13.0851 10.269 14.8152 9.65979 16.5819 9.76944H27.9617ZM27.6449 15.3375C26.8895 14.5821 25.6711 14.5821 24.9157 15.3375L24.0994 16.166C23.9776 16.2878 23.9776 16.495 24.0994 16.6168C24.0994 16.6168 24.1233 16.6406 24.1659 16.6829L24.4656 16.9809C24.6389 17.1534 24.8553 17.3688 25.0726 17.5854L25.8094 18.3218C25.9631 18.4763 26.0651 18.5798 26.0732 18.5906C26.2072 18.7368 26.2925 18.9317 26.2925 19.151C26.2925 19.5897 25.9392 19.9552 25.4884 19.9552C25.2812 19.9552 25.0863 19.8699 24.9523 19.7359L22.9175 17.7133C22.8201 17.6159 22.6495 17.6159 22.552 17.7133L16.7403 23.5251C16.3382 23.9271 16.1067 24.4632 16.0945 25.0359L16.0214 27.9234C16.0214 28.0818 16.0701 28.228 16.1798 28.3377C16.2895 28.4474 16.4357 28.5083 16.5941 28.5083H19.4573C20.0421 28.5083 20.6026 28.2768 21.029 27.8625L29.2289 19.6384C29.9721 18.883 29.9721 17.6646 29.2289 16.9214L27.6449 15.3375Z" fill="#5D7285"/>
</svg>
