<svg width="45" height="45" viewBox="0 0 45 45" fill="none" xmlns="http://www.w3.org/2000/svg">
<path d="M27.5574 10.2998C31.6912 10.2998 34.4682 13.2003 34.4682 17.5161V27.4765C34.4682 31.7923 31.6912 34.6928 27.5562 34.6928H16.986C12.8522 34.6928 10.0752 31.7923 10.0752 27.4765V17.5161C10.0752 13.2003 12.8522 10.2998 16.986 10.2998H27.5574ZM28.9024 23.1672C27.595 22.3516 26.5857 23.4969 26.3134 23.8632C26.0509 24.2169 25.8253 24.6071 25.5873 24.9973C25.006 25.9602 24.34 27.0703 23.1872 27.716C21.5118 28.6436 20.24 27.789 19.3251 27.1672C18.9817 26.9356 18.6481 26.7166 18.3157 26.5706C17.4964 26.2169 16.7593 26.6197 15.6653 28.0093C15.0914 28.7355 14.5223 29.4555 13.9459 30.1729C13.6012 30.6021 13.6834 31.2642 14.1482 31.5512C14.8902 32.0081 15.7953 32.2535 16.8182 32.2535H27.0971C27.6772 32.2535 28.2585 32.1742 28.8129 31.993C30.0614 31.5852 31.0524 30.6512 31.57 29.4177C32.0066 28.3806 32.2188 27.1219 31.8104 26.0747C31.6742 25.7273 31.4706 25.4038 31.1849 25.1194C30.4355 24.3755 29.7352 23.6807 28.9024 23.1672ZM18.0015 15.1784C16.3201 15.1784 14.9538 16.5465 14.9538 18.2275C14.9538 19.9085 16.3201 21.2767 18.0015 21.2767C19.6818 21.2767 21.0493 19.9085 21.0493 18.2275C21.0493 16.5465 19.6818 15.1784 18.0015 15.1784Z" fill="#5D7285"/>
</svg>
