<svg width="45" height="44" viewBox="0 0 45 44" fill="none" xmlns="http://www.w3.org/2000/svg">
<path d="M27.3831 9.84326C31.1506 9.84326 33.2484 12.0142 33.2484 15.7342V28.3332C33.2484 32.1141 31.1506 34.2363 27.3831 34.2363H17.1612C13.4535 34.2363 11.2947 32.1141 11.2947 28.3332V15.7342C11.2947 12.0142 13.4535 9.84326 17.1612 9.84326H27.3831ZM17.4905 26.6013C17.1246 26.5647 16.7709 26.7354 16.5758 27.0525C16.3806 27.3574 16.3806 27.7599 16.5758 28.077C16.7709 28.3819 17.1246 28.5649 17.4905 28.5161H27.0526C27.5392 28.4673 27.9063 28.0514 27.9063 27.5648C27.9063 27.0647 27.5392 26.65 27.0526 26.6013H17.4905ZM27.0526 21.0384H17.4905C16.9648 21.0384 16.5392 21.4665 16.5392 21.991C16.5392 22.5154 16.9648 22.9423 17.4905 22.9423H27.0526C27.577 22.9423 28.0039 22.5154 28.0039 21.991C28.0039 21.4665 27.577 21.0384 27.0526 21.0384ZM21.136 15.5146H17.4905V15.5268C16.9648 15.5268 16.5392 15.9537 16.5392 16.4782C16.5392 17.0026 16.9648 17.4295 17.4905 17.4295H21.136C21.6617 17.4295 22.0886 17.0026 22.0886 16.4647C22.0886 15.9415 21.6617 15.5146 21.136 15.5146Z" fill="#5D7285"/>
</svg>
