<svg width="45" height="45" viewBox="0 0 45 45" fill="none" xmlns="http://www.w3.org/2000/svg">
<path d="M23.1463 9.93018C24.0686 9.93018 24.9037 10.4424 25.3649 11.1986C25.5893 11.5645 25.7388 12.0158 25.7014 12.4914C25.6765 12.8573 25.7887 13.2232 25.9881 13.5647C26.6238 14.6014 28.0323 14.9917 29.1291 14.4063C30.3631 13.6989 31.9211 14.1258 32.6316 15.3332L33.4667 16.7724C34.1896 17.9799 33.7908 19.5288 32.5443 20.224C31.4849 20.846 31.1109 22.2242 31.7466 23.2731C31.9461 23.6025 32.1704 23.883 32.5194 24.0537C32.9557 24.2855 33.2922 24.6514 33.529 25.0172C33.9902 25.7734 33.9528 26.7004 33.5041 27.5175L32.6316 28.9811C32.1704 29.7617 31.3104 30.2495 30.4254 30.2495C29.9892 30.2495 29.503 30.1276 29.1042 29.8836C28.7801 29.6763 28.4062 29.6031 28.0073 29.6031C26.7734 29.6031 25.7388 30.6154 25.7014 31.8229C25.7014 33.2255 24.5547 34.3232 23.1213 34.3232H21.4262C19.9803 34.3232 18.8336 33.2255 18.8336 31.8229C18.8087 30.6154 17.7741 29.6031 16.5402 29.6031C16.1289 29.6031 15.7549 29.6763 15.4433 29.8836C15.0445 30.1276 14.5459 30.2495 14.1221 30.2495C13.2247 30.2495 12.3646 29.7617 11.9035 28.9811L11.0434 27.5175C10.5822 26.7248 10.5573 25.7734 11.0185 25.0172C11.2179 24.6514 11.5918 24.2855 12.0156 24.0537C12.3646 23.883 12.589 23.6025 12.8009 23.2731C13.4241 22.2242 13.0502 20.846 11.9907 20.224C10.7567 19.5288 10.3579 17.9799 11.0683 16.7724L11.9035 15.3332C12.6264 14.1258 14.172 13.6989 15.4184 14.4063C16.5028 14.9917 17.9112 14.6014 18.5469 13.5647C18.7464 13.2232 18.8585 12.8573 18.8336 12.4914C18.8087 12.0158 18.9458 11.5645 19.1826 11.1986C19.6438 10.4424 20.4789 9.95457 21.3888 9.93018H23.1463ZM22.2862 18.6873C20.3293 18.6873 18.7464 20.224 18.7464 22.1389C18.7464 24.0537 20.3293 25.5783 22.2862 25.5783C24.2431 25.5783 25.7887 24.0537 25.7887 22.1389C25.7887 20.224 24.2431 18.6873 22.2862 18.6873Z" fill="#5D7285"/>
</svg>
